# xmcd
#
# Track frame offsets:
#	150
#	27409
#	46781
#	69518
#	86833
#	108320
#	136217
#	155051
#	172448
#	203018
#	228192
#
# Disc length: 3338 seconds
#
# Revision: 1
# Processed by: cddbd v1.5.1PL0 Copyright (c) Steve Scherf et al.
# Submitted via: audiograbber 1.83.01
#
DISCID=940d080b
DTITLE=John Campbell - One Believer
DYEAR=1991
DGENRE=Rock
TTITLE0=Devil in my closet
TTITLE1=Angels of sorrow
TTITLE2=Wild streak
TTITLE3=Couldn't do nothin'
TTITLE4=Tiny coffin
TTITLE5=World of trouble
TTITLE6=Voodoo Edge
TTITLE7=Person to person
TTITLE8=Take me down
TTITLE9=One believer
TTITLE10=not in tracklist
EXTD=
EXTT0=
EXTT1=
EXTT2=
EXTT3=
EXTT4=
EXTT5=
EXTT6=
EXTT7=
EXTT8=
EXTT9=
EXTT10=
PLAYORDER=
